<?xml version="1.0" standalone="no"?>
<!DOCTYPE svg PUBLIC "-//W3C//DTD SVG 20010904//EN"
 "http://www.w3.org/TR/2001/REC-SVG-20010904/DTD/svg10.dtd">
<svg version="1.0" xmlns="http://www.w3.org/2000/svg"
 width="1388.000000pt" height="308.000000pt" viewBox="0 0 1388.000000 308.000000"
 preserveAspectRatio="xMidYMid meet">

<g transform="translate(0.000000,308.000000) scale(0.100000,-0.100000)"
fill="#000000" stroke="none">
<path d="M12990 3017 c-143 -112 -214 -225 -214 -337 0 -168 114 -221 229
-106 64 65 88 136 88 266 1 112 -17 220 -36 220 -7 0 -37 -19 -67 -43z"/>
<path d="M11319 3035 c-658 -103 -1112 -535 -1235 -1175 -27 -143 -25 -410 5
-550 122 -577 531 -990 1099 -1110 139 -30 444 -38 607 -16 198 26 285 55 285
95 0 46 -57 57 -355 70 -247 11 -356 31 -562 102 -511 176 -767 499 -815 1026
-35 383 72 691 330 949 93 93 239 195 347 244 370 166 873 118 1200 -115 70
-50 197 -179 244 -248 262 -385 229 -916 -71 -1182 -57 -50 -205 -126 -278
-143 -280 -66 -585 48 -736 275 -183 276 -85 657 196 764 159 61 361 36 448
-54 56 -58 76 -119 77 -232 0 -92 -2 -104 -28 -147 -47 -81 -151 -124 -233
-98 -97 31 -161 155 -100 195 21 14 29 14 87 -5 90 -28 127 -27 135 5 14 57
-77 176 -149 196 -111 30 -235 -56 -274 -190 -63 -217 150 -422 413 -398 238
22 396 201 398 452 1 170 -53 306 -168 421 -120 119 -262 171 -441 161 -114
-7 -190 -27 -290 -77 -266 -131 -428 -408 -427 -730 1 -281 135 -531 366 -685
167 -111 325 -151 561 -142 284 10 514 106 686 284 80 83 119 139 169 246 225
481 41 1186 -402 1541 -185 148 -374 232 -613 271 -111 18 -358 18 -476 0z"/>
<path d="M9347 2949 c-26 -45 -47 -84 -47 -88 0 -4 15 -15 34 -23 53 -26 102
-75 121 -121 9 -23 20 -78 22 -122 l5 -80 49 3 48 4 13 56 c7 32 13 104 12
162 0 113 -11 152 -60 209 -26 31 -110 81 -136 81 -7 0 -35 -37 -61 -81z"/>
<path d="M585 2661 c-85 -25 -108 -36 -172 -77 -128 -82 -232 -206 -307 -365
-64 -136 -87 -236 -93 -406 -7 -164 5 -258 46 -375 40 -112 86 -183 181 -279
124 -125 225 -169 392 -169 115 0 176 13 278 62 118 56 229 167 290 291 24 48
41 89 39 90 -16 13 -191 108 -193 106 -2 -2 -13 -26 -26 -54 -32 -67 -108
-140 -178 -173 -83 -38 -196 -37 -275 2 -100 48 -177 160 -219 315 -27 102
-30 333 -5 434 34 136 104 238 198 289 38 20 58 23 144 23 88 0 109 -4 170
-29 39 -16 92 -43 118 -59 26 -16 50 -28 51 -26 9 10 156 310 156 318 0 18
-104 61 -195 81 -119 26 -313 26 -400 1z"/>
<path d="M1982 2655 c-90 -7 -165 -15 -166 -16 -2 -2 -74 -233 -160 -512 -87
-280 -205 -637 -262 -795 -57 -157 -101 -288 -98 -291 6 -6 287 -30 293 -25 2
2 31 103 65 226 l63 223 285 3 285 2 58 -227 c31 -126 60 -231 64 -235 3 -3
76 5 161 18 85 13 160 24 166 24 7 0 -31 131 -89 308 -55 169 -168 532 -251
807 l-151 500 -50 1 c-28 1 -123 -4 -213 -11z m63 -347 c8 -29 50 -172 93
-318 l78 -265 -103 -3 c-56 -1 -151 -1 -211 0 l-109 3 101 318 c81 257 104
317 118 317 12 0 22 -15 33 -52z"/>
<path d="M4902 2655 c-90 -7 -165 -15 -167 -16 -1 -2 -74 -231 -160 -509 -87
-278 -204 -635 -261 -793 -57 -159 -102 -292 -99 -297 2 -4 60 -11 127 -14 68
-4 132 -10 144 -12 20 -5 25 10 85 223 l64 228 282 3 c261 2 283 1 291 -15 5
-10 33 -116 63 -236 53 -216 54 -218 79 -213 14 3 89 15 168 27 85 13 142 26
142 33 0 6 -41 135 -92 286 -50 151 -162 509 -248 795 l-157 520 -49 1 c-27 1
-122 -4 -212 -11z m63 -352 c9 -32 50 -172 91 -311 41 -139 74 -257 74 -262 0
-6 -80 -10 -211 -10 -165 0 -210 3 -206 13 2 6 49 150 102 320 80 249 102 307
116 307 13 0 22 -16 34 -57z"/>
<path d="M6070 2642 c-85 -13 -157 -26 -159 -28 -2 -1 -7 -247 -12 -546 -5
-299 -15 -651 -24 -783 -8 -132 -15 -248 -15 -257 0 -16 13 -18 143 -18 l143
0 1 563 c1 309 5 589 10 622 l8 60 130 -399 130 -399 145 7 c80 4 147 10 151
14 3 4 68 180 145 392 l139 385 9 -105 c4 -58 9 -338 10 -622 l1 -518 158 0
157 0 0 28 c0 15 -9 142 -20 282 -14 184 -22 404 -27 792 l-6 537 -51 6 c-28
3 -102 5 -165 3 l-114 -3 -171 -445 c-111 -288 -177 -446 -186 -448 -11 -2
-28 38 -67 155 -28 87 -95 292 -149 456 l-98 297 -31 -1 c-16 -1 -100 -13
-185 -27z"/>
<path d="M9011 2639 c-84 -15 -154 -30 -155 -31 -1 -2 4 -231 12 -510 12 -430
12 -550 1 -793 -8 -158 -12 -289 -10 -291 2 -2 179 -4 391 -4 l388 0 12 130
c7 72 10 133 7 137 -3 3 -95 -2 -204 -11 -109 -9 -217 -16 -239 -16 l-42 0 -7
213 c-4 137 -1 377 9 682 19 563 19 525 4 524 -7 -1 -82 -14 -167 -30z"/>
<path d="M2981 2558 c0 -57 6 -299 12 -538 10 -339 10 -485 0 -665 -6 -126
-12 -256 -12 -287 l-1 -58 157 0 156 0 -7 173 c-3 94 -9 238 -13 320 l-6 147
94 0 94 0 178 -318 c98 -174 181 -323 186 -330 6 -11 40 3 150 57 77 39 141
73 141 76 0 3 -92 134 -204 292 l-205 288 26 20 c132 100 189 169 234 282 21
50 24 75 24 189 l0 130 -38 76 c-43 88 -99 144 -192 190 -94 48 -175 57 -492
58 l-283 0 1 -102z m574 -162 c98 -42 143 -131 131 -259 -11 -118 -60 -200
-141 -238 -32 -15 -65 -19 -156 -19 l-117 0 4 83 c2 45 7 167 10 271 l6 188
112 -4 c73 -3 125 -11 151 -22z"/>
<path d="M7680 2613 c0 -27 7 -266 14 -533 12 -414 12 -524 1 -750 -8 -146
-14 -277 -15 -292 l0 -28 434 0 434 0 6 38 c3 20 8 69 11 107 4 39 9 78 11 88
5 16 -13 17 -284 17 l-290 0 -6 103 c-4 56 -8 161 -9 232 l-2 130 231 3 231 2
12 113 c6 62 11 119 11 125 0 9 -60 12 -235 12 l-235 0 0 118 c0 66 3 160 6
210 l7 92 266 2 266 3 12 95 c6 52 12 110 12 128 l1 32 -445 0 -445 0 0 -47z"/>
<path d="M13361 2635 c-144 -32 -266 -119 -316 -227 -47 -100 -24 -178 65
-228 41 -23 56 -25 161 -25 l116 0 89 44 c74 37 105 60 184 140 107 107 217
261 196 273 -7 4 -56 14 -107 23 -115 18 -302 18 -388 0z"/>
<path d="M13104 2020 c-69 -22 -97 -97 -60 -167 61 -116 221 -175 414 -153 48
5 90 10 95 10 30 0 -61 137 -140 212 -94 87 -217 126 -309 98z"/>
<path d="M912 716 c-89 -29 -152 -91 -200 -194 -34 -74 -43 -220 -18 -303 22
-76 79 -147 146 -182 50 -26 62 -29 135 -25 65 3 91 10 134 33 119 65 180 186
181 356 0 137 -47 233 -143 293 -38 24 -61 30 -120 32 -44 3 -89 -2 -115 -10z
m145 -162 c41 -26 57 -72 61 -181 4 -90 2 -107 -18 -148 -48 -99 -165 -101
-220 -4 -45 82 -46 238 -2 299 42 57 121 72 179 34z"/>
<path d="M1843 710 c-158 -63 -257 -256 -225 -441 14 -84 32 -121 81 -172 82
-87 194 -107 366 -68 l95 22 0 164 c0 90 3 170 6 179 5 14 -10 16 -129 16
-152 0 -147 3 -147 -87 l0 -43 60 0 60 0 0 -59 c0 -66 -5 -71 -73 -71 -57 0
-100 29 -128 87 -20 40 -24 63 -24 138 0 76 4 96 22 126 48 76 144 90 251 36
28 -14 52 -25 52 -22 0 2 16 40 35 85 l35 81 -48 21 c-70 32 -219 35 -289 8z"/>
<path d="M2605 713 c-143 -52 -226 -186 -227 -368 -1 -109 23 -181 82 -248 58
-65 123 -91 220 -85 59 3 87 11 129 33 115 63 181 194 181 359 0 123 -56 236
-143 290 -62 38 -166 46 -242 19z m151 -158 c43 -27 59 -82 59 -195 0 -83 -4
-113 -19 -143 -31 -63 -103 -85 -167 -51 -57 29 -97 155 -84 259 15 123 121
188 211 130z"/>
<path d="M36 674 c-3 -26 -6 -59 -6 -74 l0 -28 86 6 86 5 -3 -282 -4 -281 84
0 84 0 -7 195 c-4 107 -4 234 -1 283 7 83 9 89 29 86 11 -2 47 -5 78 -8 l57
-4 5 31 c3 18 7 51 10 75 l4 42 -248 0 -247 0 -7 -46z"/>
<path d="M4084 598 l-51 -9 1 -285 1 -284 74 0 73 0 -7 113 c-4 70 -3 108 2
102 6 -5 45 -60 88 -121 l77 -112 64 40 c35 22 64 44 64 48 0 5 -43 59 -95
120 l-95 112 57 67 c31 36 72 83 90 104 18 20 33 40 33 45 0 8 -96 72 -107 71
-5 0 -44 -47 -88 -104 -44 -58 -82 -105 -85 -105 -3 0 -4 47 -2 105 4 120 11
112 -94 93z"/>
<path d="M4982 584 c-57 -28 -101 -78 -134 -151 -18 -38 -22 -67 -23 -139 0
-81 3 -96 30 -149 55 -108 146 -152 263 -127 65 14 121 53 160 112 43 65 56
114 56 210 -1 101 -24 159 -85 215 -51 46 -76 55 -153 55 -47 0 -75 -6 -114
-26z m147 -119 c38 -19 61 -80 61 -160 0 -106 -42 -175 -105 -175 -35 0 -77
32 -96 73 -25 56 -26 168 -1 217 28 56 85 75 141 45z"/>
<path d="M5639 603 c0 -5 -1 -137 -2 -295 l-2 -288 74 0 74 0 -5 115 -4 115
73 0 c69 0 73 1 73 23 0 12 3 39 6 60 l7 37 -77 0 -76 0 0 55 0 55 84 0 83 0
7 46 c12 92 26 84 -154 84 -88 0 -160 -3 -161 -7z"/>
<path d="M6235 315 l0 -295 161 0 161 0 7 37 c14 86 17 83 -88 83 l-93 0 -7
31 c-3 17 -6 44 -6 60 l0 29 80 0 80 0 0 38 c0 20 3 47 6 60 6 21 4 22 -75 22
l-81 0 0 50 0 50 90 0 c81 0 90 2 90 19 0 10 3 39 6 65 l7 46 -169 0 -169 0 0
-295z"/>
<path d="M6925 598 l-51 -10 1 -284 0 -284 74 0 74 0 -7 115 -7 115 92 0 92 0
-7 -115 -7 -115 73 0 73 0 1 295 c1 199 -2 295 -9 295 -6 0 -39 -5 -75 -11
l-64 -11 4 -104 4 -104 -86 0 -85 0 3 115 4 115 -24 -1 c-12 -1 -46 -6 -73
-11z"/>
<path d="M7836 601 l-40 -6 -66 -210 c-37 -116 -79 -241 -93 -280 -14 -38 -24
-71 -21 -74 2 -2 34 -5 70 -5 l67 -1 20 73 19 72 82 0 83 0 18 -80 18 -80 31
5 c17 3 51 9 76 14 25 4 44 12 43 17 0 5 -28 95 -62 199 -33 105 -72 229 -86
278 l-26 87 -47 -1 c-26 -1 -65 -5 -86 -8z m64 -237 c11 -36 20 -68 20 -70 0
-2 -21 -4 -46 -4 -33 0 -45 4 -41 13 2 6 13 38 23 70 10 31 19 57 20 57 2 0
12 -30 24 -66z"/>
<path d="M8453 603 l-23 -4 1 -290 1 -289 66 0 65 0 -7 161 c-5 96 -4 159 1
156 5 -4 54 -78 108 -165 l98 -159 54 12 c30 7 56 14 58 16 2 2 5 131 7 287
l3 282 -60 -6 c-33 -4 -64 -9 -69 -12 -5 -3 -5 -73 -1 -161 4 -86 3 -152 -2
-148 -4 5 -51 79 -104 165 l-95 157 -40 1 c-21 1 -49 0 -61 -3z"/>
<path d="M9393 603 c-40 -4 -43 -6 -54 -46 -6 -23 -47 -150 -90 -281 -44 -131
-77 -241 -74 -244 3 -4 34 -8 69 -10 l62 -4 20 73 20 74 82 3 81 3 11 -41 c5
-22 15 -58 21 -81 8 -30 14 -39 27 -35 9 3 43 8 75 12 31 3 57 8 57 11 0 3
-25 82 -54 176 -30 95 -70 222 -88 282 l-34 110 -44 1 c-25 1 -64 -1 -87 -3z
m77 -300 c0 -8 -15 -13 -40 -13 -27 0 -40 4 -40 14 0 12 20 75 36 116 6 14 44
-87 44 -117z"/>
<path d="M3416 541 c-4 -6 -2 -11 3 -11 6 0 29 -16 51 -36 32 -29 44 -51 64
-118 25 -80 46 -110 93 -135 19 -10 25 -8 39 14 9 15 19 47 21 73 4 38 -1 58
-24 101 -40 77 -96 114 -177 119 -40 3 -66 0 -70 -7z"/>
<path d="M3345 480 c-44 -85 6 -211 104 -262 55 -29 122 -37 151 -18 13 9 13
12 -3 21 -41 24 -69 68 -92 145 -26 83 -49 115 -98 133 -40 16 -45 14 -62 -19z"/>
</g>
</svg>
