<svg width="30" height="30" viewBox="0 0 30 30" fill="none" xmlns="http://www.w3.org/2000/svg">
<path d="M0 3C0 1.34315 1.34315 0 3 0H27C28.6569 0 30 1.34315 30 3V4.71428C30 6.37114 28.6569 7.71429 27 7.71429H3C1.34315 7.71429 0 6.37114 0 4.71429V3Z" fill="#175C47"/>
<path d="M0 14.1426C0 12.4857 1.34315 11.1426 3 11.1426H27C28.6569 11.1426 30 12.4857 30 14.1426V15.8569C30 17.5137 28.6569 18.8569 27 18.8569H3C1.34315 18.8569 0 17.5137 0 15.8569V14.1426Z" fill="#175C47"/>
<path d="M0 25.2861C0 23.6293 1.34315 22.2861 3 22.2861H27C28.6569 22.2861 30 23.6293 30 25.2861V27.0004C30 28.6573 28.6569 30.0004 27 30.0004H3C1.34315 30.0004 0 28.6573 0 27.0004V25.2861Z" fill="#175C47"/>
</svg>
