<svg width="28" height="32" viewBox="0 0 28 32" fill="none" xmlns="http://www.w3.org/2000/svg">
<path d="M0.375684 4.996C0.375684 3.95467 0.485684 3.148 0.705684 2.576C0.933017 2.004 1.24835 1.57133 1.65168 1.278C2.06235 0.984666 2.52068 0.838 3.02668 0.838C3.54002 0.838 4.00202 0.988333 4.41268 1.289C4.83068 1.58233 5.16068 2.026 5.40268 2.62C5.64468 3.20667 5.76568 3.99867 5.76568 4.996C5.76568 5.986 5.64468 6.77433 5.40268 7.361C5.16802 7.94767 4.84168 8.39133 4.42368 8.692C4.00568 8.99267 3.54002 9.143 3.02668 9.143C2.52068 9.143 2.06602 9 1.66268 8.714C1.25935 8.42067 0.944017 7.988 0.716684 7.416C0.48935 6.83667 0.375684 6.03 0.375684 4.996ZM1.12368 5.007C1.12368 5.90167 1.20068 6.58 1.35468 7.042C1.51602 7.49667 1.75068 7.84133 2.05868 8.076C2.37402 8.31067 2.70768 8.428 3.05968 8.428C3.40435 8.428 3.72702 8.31433 4.02768 8.087C4.33568 7.85233 4.57035 7.504 4.73168 7.042C4.92968 6.47733 5.02868 5.799 5.02868 5.007C5.02868 4.215 4.94068 3.566 4.76468 3.06C4.58868 2.54667 4.34302 2.17267 4.02768 1.938C3.71968 1.70333 3.39702 1.586 3.05968 1.586C2.70768 1.586 2.37768 1.70333 2.06968 1.938C1.76168 2.17267 1.52702 2.521 1.36568 2.983C1.20435 3.43767 1.12368 4.11233 1.12368 5.007ZM9.29213 9.143C8.50746 9.12833 7.9098 8.934 7.49913 8.56C7.4038 8.45733 7.35613 8.362 7.35613 8.274C7.35613 8.252 7.36346 8.208 7.37813 8.142C7.3928 8.06867 7.4588 8.01733 7.57613 7.988L7.66413 7.977C7.75946 7.977 7.8658 8.01733 7.98313 8.098C8.1518 8.23733 8.33513 8.33633 8.53313 8.395C8.73846 8.45367 9.00246 8.483 9.32513 8.483C10.1025 8.47567 10.6708 8.197 11.0301 7.647C11.3895 7.08967 11.5985 6.415 11.6571 5.623C11.6571 5.52033 11.6205 5.469 11.5471 5.469C11.5105 5.469 11.4775 5.48367 11.4481 5.513C10.9055 6.151 10.2271 6.47 9.41313 6.47C8.6578 6.426 8.03813 6.14367 7.55413 5.623C7.07013 5.10233 6.82813 4.46433 6.82813 3.709C6.8648 2.873 7.13246 2.18733 7.63113 1.652C8.1298 1.10933 8.77146 0.838 9.55613 0.838C10.9788 0.904 11.8625 1.63733 12.2071 3.038C12.3391 3.588 12.4051 4.17833 12.4051 4.809C12.4051 6.07767 12.1411 7.12633 11.6131 7.955C11.1071 8.73967 10.3335 9.13567 9.29213 9.143ZM9.45713 5.799C10.0658 5.799 10.5865 5.601 11.0191 5.205C11.4225 4.83833 11.6241 4.33967 11.6241 3.709C11.6241 3.313 11.5105 2.928 11.2831 2.554C11.0998 2.25333 10.8578 2.004 10.5571 1.806C10.2565 1.608 9.91913 1.509 9.54513 1.509C8.98046 1.509 8.5038 1.718 8.11513 2.136C7.72646 2.554 7.51746 3.082 7.48813 3.72C7.48813 4.28467 7.6678 4.765 8.02713 5.161C8.3938 5.557 8.85946 5.76967 9.42413 5.799H9.45713ZM14.2284 9.143H14.1624C13.9864 9.143 13.8324 9.08067 13.7004 8.956C13.5757 8.824 13.5134 8.66633 13.5134 8.483C13.5134 8.263 13.5757 8.09433 13.7004 7.977C13.8324 7.85233 13.9864 7.79 14.1624 7.79H14.2284C14.397 7.79 14.5437 7.85233 14.6684 7.977C14.8004 8.09433 14.8664 8.24467 14.8664 8.428C14.8664 8.648 14.8004 8.824 14.6684 8.956C14.5437 9.08067 14.397 9.143 14.2284 9.143ZM14.2284 4.952H14.1624C13.9864 4.952 13.8324 4.88967 13.7004 4.765C13.5757 4.633 13.5134 4.47533 13.5134 4.292C13.5134 4.072 13.5757 3.90333 13.7004 3.786C13.8324 3.66133 13.9864 3.599 14.1624 3.599H14.2284C14.397 3.599 14.5437 3.66133 14.6684 3.786C14.8004 3.90333 14.8664 4.05367 14.8664 4.237C14.8664 4.457 14.8004 4.633 14.6684 4.765C14.5437 4.88967 14.397 4.952 14.2284 4.952ZM15.5114 4.996C15.5114 3.95467 15.6214 3.148 15.8414 2.576C16.0688 2.004 16.3841 1.57133 16.7874 1.278C17.1981 0.984666 17.6564 0.838 18.1624 0.838C18.6758 0.838 19.1378 0.988333 19.5484 1.289C19.9664 1.58233 20.2964 2.026 20.5384 2.62C20.7804 3.20667 20.9014 3.99867 20.9014 4.996C20.9014 5.986 20.7804 6.77433 20.5384 7.361C20.3038 7.94767 19.9774 8.39133 19.5594 8.692C19.1414 8.99267 18.6758 9.143 18.1624 9.143C17.6564 9.143 17.2018 9 16.7984 8.714C16.3951 8.42067 16.0798 7.988 15.8524 7.416C15.6251 6.83667 15.5114 6.03 15.5114 4.996ZM16.2594 5.007C16.2594 5.90167 16.3364 6.58 16.4904 7.042C16.6518 7.49667 16.8864 7.84133 17.1944 8.076C17.5098 8.31067 17.8434 8.428 18.1954 8.428C18.5401 8.428 18.8628 8.31433 19.1634 8.087C19.4714 7.85233 19.7061 7.504 19.8674 7.042C20.0654 6.47733 20.1644 5.799 20.1644 5.007C20.1644 4.215 20.0764 3.566 19.9004 3.06C19.7244 2.54667 19.4788 2.17267 19.1634 1.938C18.8554 1.70333 18.5328 1.586 18.1954 1.586C17.8434 1.586 17.5134 1.70333 17.2054 1.938C16.8974 2.17267 16.6628 2.521 16.5014 2.983C16.3401 3.43767 16.2594 4.11233 16.2594 5.007ZM22.1179 4.996C22.1179 3.95467 22.2279 3.148 22.4479 2.576C22.6752 2.004 22.9905 1.57133 23.3939 1.278C23.8045 0.984666 24.2629 0.838 24.7689 0.838C25.2822 0.838 25.7442 0.988333 26.1549 1.289C26.5729 1.58233 26.9029 2.026 27.1449 2.62C27.3869 3.20667 27.5079 3.99867 27.5079 4.996C27.5079 5.986 27.3869 6.77433 27.1449 7.361C26.9102 7.94767 26.5839 8.39133 26.1659 8.692C25.7479 8.99267 25.2822 9.143 24.7689 9.143C24.2629 9.143 23.8082 9 23.4049 8.714C23.0015 8.42067 22.6862 7.988 22.4589 7.416C22.2315 6.83667 22.1179 6.03 22.1179 4.996ZM22.8659 5.007C22.8659 5.90167 22.9429 6.58 23.0969 7.042C23.2582 7.49667 23.4929 7.84133 23.8009 8.076C24.1162 8.31067 24.4499 8.428 24.8019 8.428C25.1465 8.428 25.4692 8.31433 25.7699 8.087C26.0779 7.85233 26.3125 7.504 26.4739 7.042C26.6719 6.47733 26.7709 5.799 26.7709 5.007C26.7709 4.215 26.6829 3.566 26.5069 3.06C26.3309 2.54667 26.0852 2.17267 25.7699 1.938C25.4619 1.70333 25.1392 1.586 24.8019 1.586C24.4499 1.586 24.1199 1.70333 23.8119 1.938C23.5039 2.17267 23.2692 2.521 23.1079 2.983C22.9465 3.43767 22.8659 4.11233 22.8659 5.007ZM5.66423 31H1.50623C1.4109 31 1.33023 30.967 1.26423 30.901C1.19823 30.835 1.16523 30.747 1.16523 30.637C1.16523 29.6617 1.26423 28.932 1.46223 28.448C1.66023 27.964 1.92057 27.612 2.24323 27.392C2.57323 27.1647 2.93257 26.9777 3.32123 26.831C3.7759 26.677 4.23423 26.435 4.69623 26.105C5.09957 25.7897 5.30123 25.368 5.30123 24.84C5.30123 24.378 5.14357 24.037 4.82823 23.817C4.52023 23.597 4.09857 23.487 3.56323 23.487C2.99857 23.487 2.49623 23.7437 2.05623 24.257C1.95357 24.3597 1.8509 24.411 1.74823 24.411C1.72623 24.411 1.68223 24.4073 1.61623 24.4C1.55023 24.3927 1.49523 24.334 1.45123 24.224C1.43657 24.1873 1.42923 24.1507 1.42923 24.114C1.42923 24.0407 1.45857 23.96 1.51723 23.872C1.7519 23.564 2.04157 23.3147 2.38623 23.124C2.73823 22.9333 3.13057 22.838 3.56323 22.838C4.2819 22.838 4.86123 23.003 5.30123 23.333C5.74123 23.663 5.96123 24.1653 5.96123 24.84C5.96123 25.2287 5.8769 25.599 5.70823 25.951C5.53957 26.2957 5.3159 26.556 5.03723 26.732C4.68523 26.9447 4.34057 27.128 4.00323 27.282C3.4019 27.5387 2.8959 27.865 2.48523 28.261C2.07457 28.6497 1.85457 29.2913 1.82523 30.186C1.8399 30.252 1.87657 30.285 1.93523 30.285H5.66423C5.75957 30.285 5.84023 30.318 5.90623 30.384C5.97223 30.45 6.00523 30.5343 6.00523 30.637C6.00523 30.747 5.97223 30.835 5.90623 30.901C5.84023 30.967 5.75957 31 5.66423 31ZM11.4435 31H7.28553C7.1902 31 7.10953 30.967 7.04353 30.901C6.97753 30.835 6.94453 30.747 6.94453 30.637C6.94453 29.6617 7.04353 28.932 7.24153 28.448C7.43953 27.964 7.69986 27.612 8.02253 27.392C8.35253 27.1647 8.71186 26.9777 9.10053 26.831C9.5552 26.677 10.0135 26.435 10.4755 26.105C10.8789 25.7897 11.0805 25.368 11.0805 24.84C11.0805 24.378 10.9229 24.037 10.6075 23.817C10.2995 23.597 9.87786 23.487 9.34253 23.487C8.77786 23.487 8.27553 23.7437 7.83553 24.257C7.73286 24.3597 7.6302 24.411 7.52753 24.411C7.50553 24.411 7.46153 24.4073 7.39553 24.4C7.32953 24.3927 7.27453 24.334 7.23053 24.224C7.21586 24.1873 7.20853 24.1507 7.20853 24.114C7.20853 24.0407 7.23786 23.96 7.29653 23.872C7.5312 23.564 7.82086 23.3147 8.16553 23.124C8.51753 22.9333 8.90986 22.838 9.34253 22.838C10.0612 22.838 10.6405 23.003 11.0805 23.333C11.5205 23.663 11.7405 24.1653 11.7405 24.84C11.7405 25.2287 11.6562 25.599 11.4875 25.951C11.3189 26.2957 11.0952 26.556 10.8165 26.732C10.4645 26.9447 10.1199 27.128 9.78253 27.282C9.1812 27.5387 8.6752 27.865 8.26453 28.261C7.85386 28.6497 7.63386 29.2913 7.60453 30.186C7.6192 30.252 7.65586 30.285 7.71453 30.285H11.4435C11.5389 30.285 11.6195 30.318 11.6855 30.384C11.7515 30.45 11.7845 30.5343 11.7845 30.637C11.7845 30.747 11.7515 30.835 11.6855 30.901C11.6195 30.967 11.5389 31 11.4435 31ZM13.4388 31.143H13.3728C13.1968 31.143 13.0428 31.0807 12.9108 30.956C12.7862 30.824 12.7238 30.6663 12.7238 30.483C12.7238 30.263 12.7862 30.0943 12.9108 29.977C13.0428 29.8523 13.1968 29.79 13.3728 29.79H13.4388C13.6075 29.79 13.7542 29.8523 13.8788 29.977C14.0108 30.0943 14.0768 30.2447 14.0768 30.428C14.0768 30.648 14.0108 30.824 13.8788 30.956C13.7542 31.0807 13.6075 31.143 13.4388 31.143ZM13.4388 26.952H13.3728C13.1968 26.952 13.0428 26.8897 12.9108 26.765C12.7862 26.633 12.7238 26.4753 12.7238 26.292C12.7238 26.072 12.7862 25.9033 12.9108 25.786C13.0428 25.6613 13.1968 25.599 13.3728 25.599H13.4388C13.6075 25.599 13.7542 25.6613 13.8788 25.786C14.0108 25.9033 14.0768 26.0537 14.0768 26.237C14.0768 26.457 14.0108 26.633 13.8788 26.765C13.7542 26.8897 13.6075 26.952 13.4388 26.952ZM14.7219 26.996C14.7219 25.9547 14.8319 25.148 15.0519 24.576C15.2792 24.004 15.5945 23.5713 15.9979 23.278C16.4085 22.9847 16.8669 22.838 17.3729 22.838C17.8862 22.838 18.3482 22.9883 18.7589 23.289C19.1769 23.5823 19.5069 24.026 19.7489 24.62C19.9909 25.2067 20.1119 25.9987 20.1119 26.996C20.1119 27.986 19.9909 28.7743 19.7489 29.361C19.5142 29.9477 19.1879 30.3913 18.7699 30.692C18.3519 30.9927 17.8862 31.143 17.3729 31.143C16.8669 31.143 16.4122 31 16.0089 30.714C15.6055 30.4207 15.2902 29.988 15.0629 29.416C14.8355 28.8367 14.7219 28.03 14.7219 26.996ZM15.4699 27.007C15.4699 27.9017 15.5469 28.58 15.7009 29.042C15.8622 29.4967 16.0969 29.8413 16.4049 30.076C16.7202 30.3107 17.0539 30.428 17.4059 30.428C17.7505 30.428 18.0732 30.3143 18.3739 30.087C18.6819 29.8523 18.9165 29.504 19.0779 29.042C19.2759 28.4773 19.3749 27.799 19.3749 27.007C19.3749 26.215 19.2869 25.566 19.1109 25.06C18.9349 24.5467 18.6892 24.1727 18.3739 23.938C18.0659 23.7033 17.7432 23.586 17.4059 23.586C17.0539 23.586 16.7239 23.7033 16.4159 23.938C16.1079 24.1727 15.8732 24.521 15.7119 24.983C15.5505 25.4377 15.4699 26.1123 15.4699 27.007ZM21.3283 26.996C21.3283 25.9547 21.4383 25.148 21.6583 24.576C21.8857 24.004 22.201 23.5713 22.6043 23.278C23.015 22.9847 23.4733 22.838 23.9793 22.838C24.4927 22.838 24.9547 22.9883 25.3653 23.289C25.7833 23.5823 26.1133 24.026 26.3553 24.62C26.5973 25.2067 26.7183 25.9987 26.7183 26.996C26.7183 27.986 26.5973 28.7743 26.3553 29.361C26.1207 29.9477 25.7943 30.3913 25.3763 30.692C24.9583 30.9927 24.4927 31.143 23.9793 31.143C23.4733 31.143 23.0187 31 22.6153 30.714C22.212 30.4207 21.8967 29.988 21.6693 29.416C21.442 28.8367 21.3283 28.03 21.3283 26.996ZM22.0763 27.007C22.0763 27.9017 22.1533 28.58 22.3073 29.042C22.4687 29.4967 22.7033 29.8413 23.0113 30.076C23.3267 30.3107 23.6603 30.428 24.0123 30.428C24.357 30.428 24.6797 30.3143 24.9803 30.087C25.2883 29.8523 25.523 29.504 25.6843 29.042C25.8823 28.4773 25.9813 27.799 25.9813 27.007C25.9813 26.215 25.8933 25.566 25.7173 25.06C25.5413 24.5467 25.2957 24.1727 24.9803 23.938C24.6723 23.7033 24.3497 23.586 24.0123 23.586C23.6603 23.586 23.3303 23.7033 23.0223 23.938C22.7143 24.1727 22.4797 24.521 22.3183 24.983C22.157 25.4377 22.0763 26.1123 22.0763 27.007Z" fill="black"/>
</svg>
